# xmcd CD database file
#
# Track frame offsets:
#	150
#	17265
#	39910
#	58633
#	77655
#	96745
#	115070
#	133850
#	156238
#	173400
#
# Disc length: 2608 seconds
#
# Revision: 0
# Processed by: cddbd v1.5.1PL2 Copyright (c) Steve Scherf et al.
# Submitted via: CDex 1.51
#
DISCID=740a2e0a
DTITLE=Various Artist - ザ・ヒーロー ヒーロー主題歌だいしゅうごう！ DISC2
DYEAR=2002
DGENRE=Anime
TTITLE0=Project DMM - Spirit
TTITLE1=Project DMM - ウルトラマンコスモス〜君にできるなにか
TTITLE2=Project DMM - 心の絆
TTITLE3=遠藤正明 - 爆闘宣言！ダイガンダー
TTITLE4=きただにひろし - We are the Heroes
TTITLE5=田中昌之 - 仮面ライダークウガ！
TTITLE6=R.A.M. - DIVER#2100
TTITLE7=R.A.M. - SO DIVE!
TTITLE8=KATSUMI - TOGETHER
TTITLE9=堀江美都子&水木一郎 - 燃えろ!スーパー戦隊魂!!
EXTD=YEAR: 2002
EXTT0=
EXTT1=
EXTT2=
EXTT3=
EXTT4=
EXTT5=
EXTT6=
EXTT7=
EXTT8=
EXTT9=
PLAYORDER=
